<svg id="Componente_3" data-name="Componente 3" xmlns="http://www.w3.org/2000/svg" width="23.961" height="23.961" viewBox="0 0 23.961 23.961">
  <path id="Tracciato_3" data-name="Tracciato 3" d="M11.98,2.13a36.735,36.735,0,0,1,4.792.133,6.174,6.174,0,0,1,2.263.4A4.675,4.675,0,0,1,21.3,4.925a6.174,6.174,0,0,1,.4,2.263c0,1.2.133,1.6.133,4.792a36.734,36.734,0,0,1-.133,4.792,6.174,6.174,0,0,1-.4,2.263A4.675,4.675,0,0,1,19.036,21.3a6.174,6.174,0,0,1-2.263.4c-1.2,0-1.6.133-4.792.133A36.734,36.734,0,0,1,7.188,21.7a6.174,6.174,0,0,1-2.263-.4,4.675,4.675,0,0,1-2.263-2.263,6.174,6.174,0,0,1-.4-2.263c0-1.2-.133-1.6-.133-4.792a36.735,36.735,0,0,1,.133-4.792,6.174,6.174,0,0,1,.4-2.263,4.781,4.781,0,0,1,.932-1.331,2.251,2.251,0,0,1,1.331-.932,6.174,6.174,0,0,1,2.263-.4A36.735,36.735,0,0,1,11.98,2.13m0-2.13A39.332,39.332,0,0,0,7.055.133,8.218,8.218,0,0,0,4.127.666,5.211,5.211,0,0,0,2,2,5.211,5.211,0,0,0,.666,4.127,6.065,6.065,0,0,0,.133,7.055,39.332,39.332,0,0,0,0,11.98a39.332,39.332,0,0,0,.133,4.925,8.218,8.218,0,0,0,.532,2.929A5.211,5.211,0,0,0,2,21.964,5.211,5.211,0,0,0,4.127,23.3a8.218,8.218,0,0,0,2.929.532,39.331,39.331,0,0,0,4.925.133,39.331,39.331,0,0,0,4.925-.133,8.218,8.218,0,0,0,2.929-.532A5.585,5.585,0,0,0,23.3,19.834a8.218,8.218,0,0,0,.532-2.929c0-1.331.133-1.731.133-4.925a39.331,39.331,0,0,0-.133-4.925A8.218,8.218,0,0,0,23.3,4.127,5.211,5.211,0,0,0,21.964,2,5.211,5.211,0,0,0,19.834.666,8.218,8.218,0,0,0,16.906.133,39.332,39.332,0,0,0,11.98,0m0,5.857A6.025,6.025,0,0,0,5.857,11.98,6.123,6.123,0,1,0,11.98,5.857m0,10.117A3.922,3.922,0,0,1,7.987,11.98,3.922,3.922,0,0,1,11.98,7.987a3.922,3.922,0,0,1,3.993,3.993,3.922,3.922,0,0,1-3.993,3.993M18.37,4.127a1.464,1.464,0,1,0,1.464,1.464A1.477,1.477,0,0,0,18.37,4.127" fill-rule="evenodd"/>
</svg>
