<svg xmlns="http://www.w3.org/2000/svg" width="23.961" height="23" viewBox="0 0 23.961 23">
  <g id="Componente_2" data-name="Componente 2" transform="translate(0 -0.262)">
    <rect id="Rettangolo_393" data-name="Rettangolo 393" width="23" height="23" transform="translate(0.515 0.262)" fill="none"/>
    <path id="Tracciato_2" data-name="Tracciato 2" d="M45.588,21.435A13.853,13.853,0,0,0,59.565,7.458V6.792a10.821,10.821,0,0,0,2.4-2.529,11.05,11.05,0,0,1-2.8.8A5.179,5.179,0,0,0,61.3,2.4a12.21,12.21,0,0,1-3.062,1.2A4.754,4.754,0,0,0,54.64,2a5,5,0,0,0-4.925,4.925,2.6,2.6,0,0,0,.133,1.065A13.763,13.763,0,0,1,39.731,2.8a5.1,5.1,0,0,0-.666,2.529,5.289,5.289,0,0,0,2.13,4.127,4.488,4.488,0,0,1-2.263-.666h0a4.865,4.865,0,0,0,3.993,4.792,4.1,4.1,0,0,1-1.331.133,2.265,2.265,0,0,1-.932-.133,5.043,5.043,0,0,0,4.659,3.461,10.05,10.05,0,0,1-6.123,2.13,3.685,3.685,0,0,1-1.2-.133,12.565,12.565,0,0,0,7.588,2.4" transform="translate(-38 0.615)" fill-rule="evenodd"/>
  </g>
</svg>
